<?xml version="1.0" encoding="UTF-8"?>
<svg version="1.1" xmlns="http://www.w3.org/2000/svg" width="900" height="900">
<path d="M0 0 C297 0 594 0 900 0 C900 297 900 594 900 900 C603 900 306 900 0 900 C0 603 0 306 0 0 Z " fill="#FEFEFE" transform="translate(0,0)"/>
<path d="M0 0 C4.19342606 1.36031662 8.51348286 2.20131282 12.82641602 3.09350586 C17.47244568 4.11975456 21.54149076 5.66106557 25.85131836 7.66601562 C30.06178919 9.5396014 34.42569014 10.98057284 38.78344727 12.47045898 C39.69674805 12.7862793 40.61004883 13.10209961 41.55102539 13.42749023 C43.7731439 14.1953427 45.99642686 14.95959923 48.22094727 15.72045898 C48.22094727 16.38045898 48.22094727 17.04045898 48.22094727 17.72045898 C48.94411133 17.84807617 49.66727539 17.97569336 50.41235352 18.10717773 C69.29256571 22.22983881 88.44894049 35.6830191 104.23657227 46.40405273 C105.87691623 47.49223367 107.57433847 48.49382539 109.28344727 49.47045898 C110.24250977 50.08920898 110.24250977 50.08920898 111.22094727 50.72045898 C111.22094727 51.38045898 111.22094727 52.04045898 111.22094727 52.72045898 C112.32889648 53.1187793 112.32889648 53.1187793 113.45922852 53.52514648 C116.18845546 54.70639605 118.10340224 55.98585418 120.40844727 57.84545898 C121.18961914 58.47194336 121.97079102 59.09842773 122.77563477 59.74389648 C123.58258789 60.39616211 124.38954102 61.04842773 125.22094727 61.72045898 C126.00727539 62.33147461 126.79360352 62.94249023 127.60375977 63.57202148 C133.47311563 68.15804552 138.96062331 73.06553256 144.41235352 78.13061523 C146.66791813 80.21050305 148.94962613 82.23026796 151.28344727 84.22045898 C158.43293613 90.43157744 165.16804579 97.25327079 171.30297852 104.46655273 C172.8005999 106.22648662 174.32422469 107.96430212 175.85766602 109.69311523 C196.43551632 133.01055922 212.84100514 159.71783613 226.22094727 187.72045898 C226.58720215 188.48342285 226.95345703 189.24638672 227.33081055 190.0324707 C232.99263913 201.92400227 237.55194631 213.93475787 241.50708008 226.49243164 C242.41298476 229.31982089 243.41311269 232.11099167 244.40844727 234.90795898 C246.28292621 240.49935343 247.5349383 246.19917664 248.73925781 251.96533203 C249.58180775 255.98068689 250.55388023 259.8999194 251.70922852 263.83764648 C253.61475051 270.71893064 254.48416972 277.70861301 255.34594727 284.78295898 C255.43154907 285.4717514 255.51715088 286.16054382 255.60534668 286.87020874 C256.91910548 297.48054611 258.03771734 308.02250321 258.22094727 318.72045898 C258.24672852 319.88786621 258.27250977 321.05527344 258.29907227 322.25805664 C258.84278677 349.97050504 258.15000116 378.41378076 251.28076172 405.41625977 C250.58575852 408.17809068 249.95240703 410.94032184 249.38793945 413.73168945 C246.99932185 425.45799215 243.45177588 436.57260462 239.47094727 447.84545898 C238.86195445 449.59383675 238.25387725 451.34253373 237.64672852 453.09155273 C236.18193983 457.30492273 234.7050298 461.51384821 233.22094727 465.72045898 C232.56094727 465.72045898 231.90094727 465.72045898 231.22094727 465.72045898 C231.06819336 466.97729492 231.06819336 466.97729492 230.91235352 468.25952148 C230.13970282 472.12714023 228.76659256 475.52097361 227.15844727 479.09545898 C226.87678711 479.73612305 226.59512695 480.37678711 226.30493164 481.03686523 C225.61635306 482.60075558 224.91950016 484.16099839 224.22094727 485.72045898 C223.56094727 485.72045898 222.90094727 485.72045898 222.22094727 485.72045898 C221.91157227 486.87545898 221.60219727 488.03045898 221.28344727 489.22045898 C215.51232388 506.45292553 203.12421639 523.38276354 192.22094727 537.72045898 C191.42817383 538.7684668 190.63540039 539.81647461 189.81860352 540.89624023 C175.55741849 559.65018268 175.55741849 559.65018268 167.88110352 567.06420898 C166.16569892 568.77557734 164.6029687 570.56235306 163.03344727 572.40795898 C155.77624678 580.8093127 147.72563731 588.59362376 139.22094727 595.72045898 C138.3534082 596.46553711 137.48586914 597.21061523 136.59204102 597.97827148 C124.16023115 608.53951609 110.87899046 617.82393544 97.22094727 626.72045898 C96.23094727 627.37014648 95.24094727 628.01983398 94.22094727 628.68920898 C67.92708762 645.72045898 67.92708762 645.72045898 60.22094727 645.72045898 C60.22094727 646.38045898 60.22094727 647.04045898 60.22094727 647.72045898 C37.99163088 656.69711753 37.99163088 656.69711753 29.22094727 659.72045898 C28.26961914 660.07624023 27.31829102 660.43202148 26.33813477 660.79858398 C20.6921379 662.46832742 13.76755716 663.01865204 8.15063477 660.96264648 C4.12509031 658.39358042 1.70797717 655.18154869 0.22094727 650.72045898 C0.12424379 649.14795806 0.08337555 647.57171678 0.07618713 645.9962616 C0.06928864 645.02476669 0.06239014 644.05327179 0.05528259 643.05233765 C0.05266922 641.98786407 0.05005585 640.9233905 0.04736328 639.82666016 C0.04067627 638.70444565 0.03398926 637.58223114 0.02709961 636.42601013 C0.01303597 633.98532897 0.00114612 631.54463455 -0.00884819 629.10393333 C-0.02523899 625.24162873 -0.04847651 621.37942223 -0.07374573 617.51716614 C-0.14457259 606.53444273 -0.20468078 595.5516798 -0.25585938 584.56884766 C-0.28723044 577.85449979 -0.32893008 571.14027799 -0.37605476 564.42601967 C-0.39207399 561.86599054 -0.40439591 559.30593551 -0.41296196 556.74587059 C-0.42511687 553.16461153 -0.44926847 549.58361649 -0.47607422 546.00244141 C-0.47695793 544.41484009 -0.47695793 544.41484009 -0.4778595 542.79516602 C-0.52860451 537.67825469 -0.82098936 533.52405246 -2.77905273 528.72045898 C-3.20103399 526.76854567 -3.62191821 524.81629838 -4.02001953 522.859375 C-6.74345028 509.81400769 -11.5194212 499.22766674 -21.05639648 489.61108398 C-22.77905273 487.72045898 -22.77905273 487.72045898 -22.77905273 485.72045898 C-21.80005005 485.65242065 -21.80005005 485.65242065 -20.80126953 485.58300781 C-13.605643 485.01471432 -6.65547732 483.87008447 0.40844727 482.40795898 C1.50777588 482.18213135 2.60710449 481.95630371 3.73974609 481.72363281 C6.90253413 481.06664424 10.06223194 480.39672649 13.22094727 479.72045898 C13.99696289 479.55674805 14.77297852 479.39303711 15.57250977 479.22436523 C53.2570781 471.12863097 85.93571134 452.0975011 107.95532227 420.20874023 C120.98288086 399.58177247 127.59939283 376.6165496 130.79467773 352.63623047 C131.06920529 350.75840536 131.38795496 348.88625176 131.76049805 347.02539062 C133.54481504 338.03176801 133.52476975 329.13219551 133.48168945 320 C133.47087239 317.26402111 133.48168776 314.52868484 133.49438477 311.79272461 C133.49306469 310.04077005 133.49050544 308.28881588 133.48657227 306.53686523 C133.49264496 305.3196151 133.49264496 305.3196151 133.49884033 304.07777405 C133.46333712 299.78809584 133.06651643 296.66544402 131.22094727 292.72045898 C130.85709469 291.22620959 130.53512561 289.72112796 130.25610352 288.20874023 C130.09746826 287.37286377 129.93883301 286.5369873 129.77539062 285.67578125 C129.61304932 284.8036499 129.45070801 283.93151855 129.28344727 283.03295898 C126.7994384 269.82152886 126.7994384 269.82152886 121.22094727 257.72045898 C120.15145588 255.703317 119.08945896 253.68219042 118.03344727 251.65795898 C113.14323704 242.55702038 107.95250424 233.84701904 100.37329102 226.73217773 C98.5642745 223.57406415 99.49589861 221.20725075 100.22094727 217.72045898 C100.57672852 215.87967773 100.57672852 215.87967773 100.93969727 214.00170898 C101.4605306 211.48087565 101.98136393 208.96004232 102.50219727 206.43920898 C106.43310831 186.10101705 104.5111681 166.12473865 99.7722168 146.12426758 C99.13358104 143.33949889 98.63838789 140.54658 98.22094727 137.72045898 C97.56094727 137.72045898 96.90094727 137.72045898 96.22094727 137.72045898 C95.89094727 135.74045898 95.56094727 133.76045898 95.22094727 131.72045898 C63.10427669 131.79012638 36.77855018 144.71906906 10.04907227 161.33764648 C9.37811523 161.74853516 8.7071582 162.15942383 8.01586914 162.58276367 C6.53397834 163.52204701 5.1099647 164.55197078 3.70532227 165.60327148 C-1.55686016 167.9695988 -9.00035352 165.32846395 -14.44311523 164.16186523 C-15.91174978 163.85467213 -17.38050422 163.54805177 -18.84936523 163.24194336 C-21.1026242 162.76941573 -23.35492785 162.29357837 -25.60522461 161.80712891 C-45.81623211 157.45527169 -65.95549322 156.33119531 -86.59155273 156.40795898 C-87.59208679 156.40944946 -88.59262085 156.41093994 -89.62347412 156.41247559 C-104.86202188 156.4531611 -119.74887381 156.99284368 -134.77905273 159.72045898 C-136.11709961 159.96119141 -136.11709961 159.96119141 -137.48217773 160.20678711 C-144.01429383 161.41032006 -150.50551517 162.78031844 -156.99194336 164.20727539 C-158.3945484 164.51453396 -159.79800755 164.81792596 -161.20239258 165.11694336 C-163.00878142 165.50199297 -164.81204841 165.90161039 -166.61499023 166.30249023 C-173.1704308 167.16845584 -177.22598629 165.17383724 -182.52905273 161.53295898 C-183.77853359 160.70665259 -185.02853527 159.88113324 -186.27905273 159.05639648 C-187.44583245 158.27792006 -188.61250968 157.49929 -189.77905273 156.72045898 C-197.96683535 151.32163982 -206.69874613 147.47141936 -215.6887207 143.6237793 C-217.44869685 142.86321964 -219.19563044 142.07258043 -220.93920898 141.27514648 C-232.76663528 135.98524274 -246.93353869 131.71293366 -259.96655273 131.47045898 C-260.80573242 131.44467773 -261.64491211 131.41889648 -262.50952148 131.39233398 C-264.78801892 131.55496843 -264.78801892 131.55496843 -266.42358398 132.82202148 C-272.93480075 141.94147782 -274.21124938 155.8883631 -275.77905273 166.72045898 C-275.91182617 167.62280273 -276.04459961 168.52514648 -276.18139648 169.45483398 C-277.57005815 180.79240049 -277.09946958 192.01666372 -275.46655273 203.28295898 C-275.34892578 204.11553223 -275.23129883 204.94810547 -275.11010742 205.8059082 C-274.50907798 209.61268422 -273.78592802 212.98590699 -272.17358398 216.49780273 C-270.8033825 219.66423472 -270.16142961 221.34903002 -270.77905273 224.72045898 C-272.36108398 226.76342773 -272.36108398 226.76342773 -274.59155273 228.90795898 C-285.05883986 240.00262294 -291.58958988 253.53260061 -296.77905273 267.72045898 C-297.29338867 268.87932617 -297.80772461 270.03819336 -298.33764648 271.23217773 C-299.73790463 274.62087834 -300.60674869 277.75961525 -301.34155273 281.34545898 C-301.5697168 282.43084961 -301.79788086 283.51624023 -302.03295898 284.63452148 C-302.28688484 285.99553565 -302.53478635 287.35767806 -302.77905273 288.72045898 C-302.95186768 289.65325684 -303.12468262 290.58605469 -303.30273438 291.54711914 C-304.75408861 300.01410842 -305.12686908 308.26411366 -305.09155273 316.84545898 C-305.09039459 317.53244873 -305.08923645 318.21943848 -305.08804321 318.92724609 C-305.04169236 332.98390047 -303.82836024 346.81000806 -301.77905273 360.72045898 C-301.65626953 361.55577148 -301.53348633 362.39108398 -301.40698242 363.25170898 C-300.26975805 370.67029663 -298.71332985 377.76794555 -295.93139648 384.75952148 C-295.03640297 387.05919975 -294.23276362 389.33746197 -293.47045898 391.68139648 C-287.20404589 410.77139039 -276.57047678 426.11194877 -262.77905273 440.72045898 C-262.13323242 441.41913086 -261.48741211 442.11780273 -260.82202148 442.83764648 C-252.70591935 451.33393263 -243.18404504 457.40019661 -232.77905273 462.72045898 C-231.6975293 463.29795898 -230.61600586 463.87545898 -229.50170898 464.47045898 C-222.24588382 468.25752634 -215.1459611 471.14661066 -207.34936523 473.57983398 C-203.77905273 474.72045898 -203.77905273 474.72045898 -200.31811523 476.16577148 C-194.47447793 478.38548042 -188.29113337 479.33814176 -182.1628418 480.45532227 C-180.04594613 480.84237024 -177.93205955 481.24342023 -175.81811523 481.64624023 C-168.57129495 483.00281818 -161.40000909 484.07348254 -154.02807617 484.50512695 C-151.77905273 484.72045898 -151.77905273 484.72045898 -149.77905273 485.72045898 C-151.0613679 488.51493825 -152.43454894 490.60456514 -154.52905273 492.84545898 C-162.49336875 502.03356014 -166.38321502 512.16973287 -168.33764648 524.14233398 C-169.7130409 531.92042652 -169.7130409 531.92042652 -172.76733398 534.21264648 C-175.41019668 535.30014023 -178.00860683 536.02130462 -180.77905273 536.72045898 C-182.86559008 537.440406 -184.9489298 538.16968372 -187.02905273 538.90795898 C-194.43086014 541.41857204 -201.27607433 541.90244477 -209.02905273 541.90795898 C-209.91979492 541.92020508 -210.81053711 541.93245117 -211.72827148 541.94506836 C-221.57527808 541.96650596 -229.99477743 540.14925889 -238.77905273 535.72045898 C-240.07649414 535.10557617 -240.07649414 535.10557617 -241.40014648 534.47827148 C-253.2918806 528.50710286 -261.45845501 519.65021367 -268.77905273 508.72045898 C-280.31911637 491.56575039 -293.42873209 475.75187341 -314.34155273 470.28295898 C-322.7477805 468.86882721 -331.20611896 468.49370525 -338.77905273 472.72045898 C-339.2023485 475.61298004 -339.27659227 477.82365933 -337.82983398 480.43139648 C-334.16060405 485.07838683 -329.6569262 487.79910188 -324.65014648 490.84936523 C-305.15852627 503.55206739 -294.75400418 525.62553787 -285.22827148 546.04467773 C-279.70640688 557.6688725 -272.79835143 565.90237918 -261.77905273 572.72045898 C-260.78905273 573.05045898 -259.79905273 573.38045898 -258.77905273 573.72045898 C-258.77905273 574.38045898 -258.77905273 575.04045898 -258.77905273 575.72045898 C-256.56712411 576.40942036 -254.35040617 577.08400086 -252.12280273 577.72045898 C-249.78741603 578.41889239 -247.47496801 579.19673341 -245.18530273 580.03295898 C-233.97852797 583.84147969 -223.05719072 584.18823882 -211.34155273 584.15795898 C-210.57475189 584.15790863 -209.80795105 584.15785828 -209.01791382 584.1578064 C-196.84916164 584.12094566 -184.86474245 583.09096843 -172.77905273 581.72045898 C-172.63966688 590.70900254 -172.53323795 599.69717074 -172.4681797 608.68656158 C-172.43694519 612.86133662 -172.39461963 617.03536908 -172.32641602 621.2097168 C-172.26093759 625.24278496 -172.22528749 629.27514164 -172.20978928 633.30870056 C-172.19875351 634.84288221 -172.1772026 636.3770275 -172.14467239 637.91090393 C-171.84970545 652.40351875 -171.84970545 652.40351875 -177.23881531 658.3924408 C-181.71871413 662.25508367 -186.59627076 662.20098109 -192.26342773 662.10327148 C-201.95373132 661.04810509 -211.30201162 657.21593411 -220.02905273 653.02124023 C-223.113981 651.56203411 -226.24938824 650.27175809 -229.40405273 648.97045898 C-245.88705185 641.93723179 -262.05013876 632.90510337 -276.77905273 622.72045898 C-277.9828722 621.90966027 -279.18736136 621.09985544 -280.39233398 620.29077148 C-293.06006961 611.74414478 -304.97429267 602.64471605 -316.12670898 592.18920898 C-318.24181124 590.22051293 -320.38358626 588.33179847 -322.59155273 586.47045898 C-332.13070169 578.1686055 -341.05692063 569.04730141 -348.88061523 559.11499023 C-350.56921494 556.98513093 -352.32330007 554.97741084 -354.15405273 552.97045898 C-365.90125502 539.64972845 -375.97502621 524.11182126 -384.77905273 508.72045898 C-385.37580811 507.68405273 -385.37580811 507.68405273 -385.98461914 506.62670898 C-387.36277555 504.22556533 -388.72864929 501.81778949 -390.09155273 499.40795898 C-390.53692383 498.63025146 -390.98229492 497.85254395 -391.44116211 497.05126953 C-393.53953191 493.30412269 -395.31896144 490.06962386 -395.77905273 485.72045898 C-396.43905273 485.72045898 -397.09905273 485.72045898 -397.77905273 485.72045898 C-398.00044922 485.19202393 -398.2218457 484.66358887 -398.44995117 484.11914062 C-399.47532939 481.67333081 -400.50218446 479.22814355 -401.52905273 476.78295898 C-401.87709961 475.9521582 -402.22514648 475.12135742 -402.58374023 474.26538086 C-404.26891593 470.25528684 -405.98089526 466.26788209 -407.79467773 462.31420898 C-410.14570199 457.04867753 -411.97305895 451.63025594 -413.77905273 446.15795898 C-414.30341919 444.57567505 -414.30341919 444.57567505 -414.83837891 442.96142578 C-417.56369041 434.62012816 -419.85277237 426.28066099 -421.77905273 417.72045898 C-422.32012631 415.3453238 -422.8617624 412.97031666 -423.40405273 410.59545898 C-423.62319336 409.60288086 -423.84233398 408.61030273 -424.06811523 407.58764648 C-424.7245429 404.71735226 -424.7245429 404.71735226 -425.77124023 402.02124023 C-427.17660255 397.41840628 -427.69703233 392.80104925 -428.27905273 388.03295898 C-428.39635742 387.12223633 -428.51366211 386.21151367 -428.63452148 385.27319336 C-429.03633021 382.0911275 -429.40827552 378.90629093 -429.77905273 375.72045898 C-429.90512909 374.69998978 -429.90512909 374.69998978 -430.03375244 373.65890503 C-431.59472019 360.97037681 -432.17690876 348.4384298 -432.15405273 335.65795898 C-432.15483826 334.71378113 -432.15562378 333.76960327 -432.15643311 332.79681396 C-432.13963518 315.77479261 -430.79429492 299.16214148 -428.3112793 282.33081055 C-427.94572129 279.85105283 -427.59975827 277.36835161 -427.27026367 274.88354492 C-427.10558594 273.65152344 -426.9409082 272.41950195 -426.77124023 271.15014648 C-426.62799316 270.05686035 -426.48474609 268.96357422 -426.3371582 267.8371582 C-425.76629165 264.64919567 -424.83919458 261.77626818 -423.77905273 258.72045898 C-423.4030678 257.1619176 -423.05417631 255.59652588 -422.73608398 254.02514648 C-420.20128066 241.96809563 -416.88246714 230.56585797 -412.60913086 219.01733398 C-410.9113169 214.31938289 -409.43034089 209.54758188 -407.91967773 204.78686523 C-406.81100566 201.80635982 -405.43147088 199.4259295 -403.77905273 196.72045898 C-402.73097923 194.33240822 -401.7153174 191.94113127 -400.71655273 189.53295898 C-396.73878785 180.21433558 -391.86734534 171.47113894 -386.77905273 162.72045898 C-386.18640625 161.70024658 -386.18640625 161.70024658 -385.58178711 160.65942383 C-370.31121273 134.51337736 -351.63333506 111.57433567 -330.77905273 89.72045898 C-329.54155273 88.41915039 -329.54155273 88.41915039 -328.27905273 87.09155273 C-323.63601932 82.32415235 -318.69855702 78.10411716 -313.50170898 73.95092773 C-310.99343208 71.89608396 -308.63960556 69.7539313 -306.27905273 67.53295898 C-295.4971686 57.71713167 -283.20490223 49.3005733 -270.77905273 41.72045898 C-269.48864324 40.90226703 -268.19969605 40.08176629 -266.91186523 39.25952148 C-259.70390299 34.67055937 -252.55158738 30.30158235 -244.77905273 26.72045898 C-243.53528109 26.13903073 -242.29181634 25.55694572 -241.04858398 24.97436523 C-239.07755954 24.05171219 -237.1058096 23.13094065 -235.13037109 22.21777344 C-232.26551129 20.89298058 -229.42309613 19.5413861 -226.60327148 18.12280273 C-223.35806695 16.51142178 -220.06686182 15.19038022 -216.69311523 13.87670898 C-214.67471968 13.07584426 -212.67000063 12.23996286 -210.67749023 11.37670898 C-199.63433059 6.69022137 -188.22550352 3.61990136 -176.65234375 0.51757812 C-174.03962755 -0.20725137 -171.46386093 -1.00407973 -168.88061523 -1.82641602 C-119.3757594 -16.80172125 -49.1246842 -17.00695182 0 0 Z " fill="#0D1017" transform="translate(536.779052734375,123.279541015625)"/>
<path d="M0 0 C2.35953094 2.35953094 2.49141413 3.77895617 3 7 C2.34 7 1.68 7 1 7 C1.061875 8.175625 1.061875 8.175625 1.125 9.375 C1 12 1 12 -1 14 C-1.66 14.99 -2.32 15.98 -3 17 C-2.22095672 5.47835991 -2.22095672 5.47835991 0 0 Z " fill="#323338" transform="translate(113,382)"/>
<path d="M0 0 C2.0625 0.4375 2.0625 0.4375 4 1 C3.37240135 3.92879371 2.41377341 6.36095629 1 9 C-0.06775224 7.03533587 -1.06553465 5.03144641 -2 3 C-1 1 -1 1 0 0 Z " fill="#23262A" transform="translate(130,581)"/>
<path d="M0 0 C0.66 0.66 1.32 1.32 2 2 C1.70012049 5.79847379 0.5832325 8.2101089 -2 11 C-2.66 11 -3.32 11 -4 11 C-3.52269162 9.5410574 -3.04308958 8.08286504 -2.5625 6.625 C-2.29566406 5.81289063 -2.02882812 5.00078125 -1.75390625 4.1640625 C-1 2 -1 2 0 0 Z " fill="#2E3035" transform="translate(138,308)"/>
<path d="M0 0 C0.33 0.66 0.66 1.32 1 2 C0.67 2.66 0.34 3.32 0 4 C-0.99 4 -1.98 4 -3 4 C-3.33 4.99 -3.66 5.98 -4 7 C-5.98 7 -7.96 7 -10 7 C-7.0094833 3.66442368 -4.06815373 1.84916079 0 0 Z " fill="#26272B" transform="translate(273,161)"/>
<path d="M0 0 C3.96 1.32 7.92 2.64 12 4 C11.01 4.66 10.02 5.32 9 6 C9 5.34 9 4.68 9 4 C8.236875 4.20625 7.47375 4.4125 6.6875 4.625 C4 5 4 5 1 3 C0.67 2.01 0.34 1.02 0 0 Z " fill="#343539" transform="translate(573,135)"/>
<path d="M0 0 C0.66 0 1.32 0 2 0 C2.36625971 4.51720311 2.36625971 4.51720311 0.625 6.8125 C-1 8 -1 8 -3 8 C-2.45276317 4.62537285 -1.9451 2.91765 0 0 Z " fill="#222428" transform="translate(166,260)"/>
<path d="M0 0 C0.99 0 1.98 0 3 0 C4.32 2.31 5.64 4.62 7 7 C5.02 6.34 3.04 5.68 1 5 C0.67 3.35 0.34 1.7 0 0 Z " fill="#1D1F23" transform="translate(722,248)"/>
<path d="M0 0 C2.125 0.9375 2.125 0.9375 4 2 C-1.75 6 -1.75 6 -4 6 C-4 5.34 -4 4.68 -4 4 C-3.34 4 -2.68 4 -2 4 C-2 3.01 -2 2.02 -2 1 C-1.34 0.67 -0.68 0.34 0 0 Z " fill="#191B1F" transform="translate(616,756)"/>
<path d="M0 0 C-0.33 1.32 -0.66 2.64 -1 4 C-6.94 4.495 -6.94 4.495 -13 5 C-10.54278328 3.36185552 -8.65432189 2.38047801 -5.9375 1.375 C-5.24527344 1.11460937 -4.55304688 0.85421875 -3.83984375 0.5859375 C-2 0 -2 0 0 0 Z " fill="#CACBCE" transform="translate(363,657)"/>
<path d="M0 0 C2 3.75 2 3.75 2 6 C1.01 6.495 1.01 6.495 0 7 C-1.0409066 8.64142963 -2.04504326 10.30712215 -3 12 C-4 10 -4 10 -3.22265625 7.6171875 C-2.83980469 6.71226562 -2.45695313 5.80734375 -2.0625 4.875 C-1.68222656 3.96492187 -1.30195312 3.05484375 -0.91015625 2.1171875 C-0.60980469 1.41851563 -0.30945313 0.71984375 0 0 Z " fill="#D1D3D5" transform="translate(768,589)"/>
<path d="M0 0 C1.0326802 2.78823655 1.04509293 3.8677274 0.0625 6.75 C-0.288125 7.4925 -0.63875 8.235 -1 9 C-3 6 -3 6 -4 3 C-3.34 2.34 -2.68 1.68 -2 1 C-1.67 1.33 -1.34 1.66 -1 2 C-0.67 1.34 -0.34 0.68 0 0 Z " fill="#1D1E24" transform="translate(773,574)"/>
<path d="M0 0 C0.99 0.33 1.98 0.66 3 1 C2.34 2.32 1.68 3.64 1 5 C-0.65 5 -2.3 5 -4 5 C-2.68 3.35 -1.36 1.7 0 0 Z " fill="#1E2024" transform="translate(201,218)"/>
<path d="M0 0 C0.66 1.32 1.32 2.64 2 4 C0.02 5.32 -1.96 6.64 -4 8 C-4.66 7.67 -5.32 7.34 -6 7 C-4.02 4.69 -2.04 2.38 0 0 Z " fill="#2C2D31" transform="translate(634,557)"/>
<path d="M0 0 C0.99 0.99 1.98 1.98 3 3 C2.34 4.65 1.68 6.3 1 8 C0.01 7.34 -0.98 6.68 -2 6 C-1.34 4.02 -0.68 2.04 0 0 Z " fill="#1D2024" transform="translate(147,291)"/>
<path d="M0 0 C-1.65 1.32 -3.3 2.64 -5 4 C-5.66 2.68 -6.32 1.36 -7 0 C-3.86650268 -1.04449911 -3.01031744 -0.93423645 0 0 Z " fill="#191A1D" transform="translate(387,611)"/>
<path d="M0 0 C0.33 0 0.66 0 1 0 C1 1.98 1 3.96 1 6 C1.66 6.33 2.32 6.66 3 7 C1.35 7.33 -0.3 7.66 -2 8 C-1.34 5.36 -0.68 2.72 0 0 Z " fill="#1F2125" transform="translate(126,337)"/>
</svg>
