<?xml version="1.0" encoding="UTF-8"?>
<svg version="1.1" xmlns="http://www.w3.org/2000/svg" width="330" height="248">
<path d="M0 0 C0.69528809 -0.02231689 1.39057617 -0.04463379 2.10693359 -0.06762695 C12.76148691 -0.02188334 20.51358394 5.37336715 28.5625 11.8125 C30.41427938 13.25920264 32.26716638 14.70448851 34.12109375 16.1484375 C35.04390137 16.8712793 35.96670898 17.59412109 36.91748047 18.33886719 C40.93047576 21.44939086 45.02283261 24.44616512 49.125 27.4375 C56.75367709 33.02233965 64.28148771 38.73029558 71.7890625 44.4765625 C78.28543063 49.4398644 84.84763065 54.30514675 91.44335938 59.13525391 C97.55817761 63.62430697 103.59835218 68.20596122 109.625 72.8125 C110.51316406 73.48780762 111.40132812 74.16311523 112.31640625 74.85888672 C115.97575356 77.64134292 119.62774674 80.42657193 123.21875 83.296875 C124.1778125 84.04453125 125.136875 84.7921875 126.125 85.5625 C126.8984375 86.18382813 127.671875 86.80515625 128.46875 87.4453125 C130.58659428 88.6721606 130.58659428 88.6721606 132.8984375 88.0078125 C136.81097594 85.75445942 140.23448778 83.01073025 143.75 80.1875 C150.06424812 75.1941191 156.43592822 70.30950628 162.9375 65.5625 C169.72698226 60.59745481 176.44649141 55.5508386 183.125 50.4375 C190.50676284 44.78732861 197.94631958 39.22761476 205.44775391 33.73754883 C211.52570615 29.27763747 217.51796141 24.71245947 223.5 20.125 C252.02333124 -1.66924463 252.02333124 -1.66924463 271.625 0.4375 C275.07989535 1.25155669 277.68263933 2.47399554 280.625 4.4375 C281.40359375 4.94667969 282.1821875 5.45585938 282.984375 5.98046875 C290.18820413 11.12437942 294.23392405 16.92730318 296.625 25.4375 C296.81234754 28.31303601 296.90379972 31.09008764 296.89242554 33.9637146 C296.89695665 34.80849196 296.90148776 35.65326932 296.90615618 36.523646 C296.91879029 39.34703746 296.91718045 42.17023578 296.91552734 44.99365234 C296.92151316 47.02094266 296.92831884 49.0482307 296.93588257 51.07551575 C296.95354321 56.57760044 296.95823795 62.07962293 296.95951414 67.58173323 C296.96093614 71.02013896 296.96520663 74.45852889 296.97050858 77.89693069 C296.98900829 89.89483901 296.99717916 101.89270289 296.99560547 113.890625 C296.99440374 125.0707804 297.01551257 136.25074286 297.0470928 147.43084943 C297.07324993 157.03357297 297.08397301 166.63623345 297.08269465 176.23899233 C297.0821849 181.97256227 297.0878756 187.70596067 297.10905075 193.43949509 C297.12842379 198.83220456 297.12856382 204.22457869 297.11401749 209.61730003 C297.11192722 211.59417015 297.11664322 213.57106121 297.1287384 215.54789543 C297.14420594 218.25142917 297.13487298 220.95380871 297.11947632 223.65731812 C297.12976344 224.43534896 297.14005057 225.21337981 297.15064943 226.01498735 C297.07020125 232.42883307 295.18105453 237.80522118 290.66015625 242.4609375 C290.00917969 242.90695313 289.35820312 243.35296875 288.6875 243.8125 C288.03910156 244.27398437 287.39070313 244.73546875 286.72265625 245.2109375 C267.96773051 256.17750488 243.35085647 248.4375 221.625 248.4375 C221.295 206.8575 220.965 165.2775 220.625 122.4375 C213.695 127.7175 206.765 132.9975 199.625 138.4375 C190.125 145.4375 190.125 145.4375 185.4375 148.875 C180.28763978 152.66963385 175.20462377 156.54960006 170.125 160.4375 C161.07113065 167.36691812 151.95100806 174.20343175 142.70849609 180.87988281 C141.26763027 181.95707099 139.86027683 183.08002783 138.48291016 184.23730469 C133.31524204 188.50241304 133.31524204 188.50241304 130.1328125 188.203125 C126.49211901 185.63989531 122.97171218 182.9755554 119.5 180.1875 C113.18575188 175.1941191 106.81407178 170.30950628 100.3125 165.5625 C93.52301705 160.59745432 86.80352313 155.55082105 80.125 150.4375 C71.14472419 143.56416065 62.07550248 136.82089526 52.9440918 130.14990234 C49.48954655 127.59908854 46.06039542 125.01404657 42.625 122.4375 C42.295 164.0175 41.965 205.5975 41.625 248.4375 C-16.375 248.4375 -16.375 248.4375 -26.375 243.4375 C-32.03026524 236.88929814 -33.52417927 232.89018459 -33.52217102 224.27877808 C-33.52584771 223.43726956 -33.5295244 222.59576103 -33.5333125 221.72875226 C-33.54435837 218.89842637 -33.54819473 216.06813719 -33.55200195 213.23779297 C-33.55826599 211.212569 -33.56491273 209.18734619 -33.57191467 207.16212463 C-33.58933136 201.65154715 -33.59987856 196.14097835 -33.6081202 190.63038015 C-33.61326962 187.18746509 -33.61934542 183.74455272 -33.62563133 180.30163956 C-33.64468646 169.5294752 -33.65891615 158.7573177 -33.6672433 147.98513973 C-33.67701376 135.55102795 -33.70332705 123.11709429 -33.74374419 110.68304527 C-33.77391037 101.07273103 -33.78871271 91.46246783 -33.79202431 81.85210717 C-33.79437447 76.11230136 -33.80333042 70.37268577 -33.82848549 64.63293076 C-33.85177944 59.23042375 -33.85599397 53.82823201 -33.84572411 48.42568779 C-33.84522894 46.44600946 -33.85154365 44.46631554 -33.86528015 42.4866848 C-33.88302714 39.77678908 -33.87587922 37.06802133 -33.86274719 34.35812378 C-33.87371644 33.58095941 -33.88468568 32.80379505 -33.89598733 32.00308025 C-33.78985904 22.88624497 -29.43408918 15.07779677 -23.375 8.4375 C-16.40325829 2.12192222 -9.26383936 0.17499937 0 0 Z " fill="#E94234" transform="translate(33.375,-0.4375)"/>
<path d="M0 0 C1.44530213 0.95913441 2.89002561 1.91914082 4.33450317 2.8795166 C5.5413914 3.68128201 5.5413914 3.68128201 6.77266121 4.49924469 C9.18057909 6.12167212 11.50699186 7.81884904 13.8046875 9.59375 C14.62517578 10.22410156 15.44566406 10.85445312 16.29101562 11.50390625 C17.57008789 12.49197266 17.57008789 12.49197266 18.875 13.5 C25.69966061 18.73786673 32.55751516 23.91931002 39.5 29 C46.51288416 34.13772578 53.46122452 39.35462368 60.375 44.625 C61.26123047 45.30046875 62.14746094 45.9759375 63.06054688 46.671875 C65.37795393 48.44263924 67.6949821 50.21313658 70 52 C70.8585408 52.443367 71.7170816 52.88673401 72.60163879 53.34353638 C76.53358982 57.69862886 75.65364907 62.5454364 75.56762695 68.20410156 C75.56835709 69.4531427 75.56908722 70.70218384 75.56983948 71.98907471 C75.56695322 75.41080853 75.54188585 78.83103296 75.50696969 82.25249958 C75.47570695 85.8292375 75.47277555 89.40599566 75.46684265 92.98284912 C75.45130382 99.7544427 75.41027531 106.52563252 75.3600952 113.29704833 C75.30420256 121.00673173 75.27671552 128.71643444 75.25161803 136.42627001 C75.1993591 152.28441381 75.11141662 168.14215484 75 184 C67.61062441 184.11647085 60.22145061 184.20500427 52.83133888 184.25906086 C49.39878258 184.28502161 45.96685978 184.32016534 42.53466797 184.37719727 C38.57787987 184.44252573 34.62133741 184.46629239 30.6640625 184.48828125 C29.44699615 184.51408768 28.22992981 184.5398941 26.97598267 184.56648254 C19.31922656 184.56897435 13.31661482 183.54734544 7 179 C1.71198059 173.33754476 -0.12606866 169.05806957 -0.12025452 161.26130676 C-0.12110894 160.57270669 -0.12196337 159.88410662 -0.12284368 159.17463988 C-0.12449365 156.86224991 -0.118985 154.54993214 -0.11352539 152.23754883 C-0.11324339 150.58195497 -0.11340151 148.92636099 -0.1139679 147.27076721 C-0.11425536 142.77107746 -0.10836678 138.27141424 -0.10139394 133.77173066 C-0.095152 129.07118504 -0.09455593 124.37063885 -0.09336853 119.67008972 C-0.0902577 110.76660957 -0.08204764 101.86314166 -0.07201904 92.95966691 C-0.06085022 82.82436258 -0.05534551 72.68905767 -0.05032361 62.55374873 C-0.03986483 41.70249231 -0.02227017 20.85124693 0 0 Z " fill="#4284F3" transform="translate(0,64)"/>
<path d="M0 0 C0.09348912 21.76627187 0.16400169 43.53251057 0.20724869 65.29894257 C0.22786379 75.40574358 0.25596432 85.51241975 0.30175781 95.61914062 C0.34165774 104.42934647 0.36744046 113.23946189 0.37635398 122.04975557 C0.38156337 126.7136991 0.39378546 131.37738397 0.42292023 136.04124451 C0.45013919 140.43415771 0.45843193 144.82670652 0.45243073 149.21969604 C0.45352807 150.82891319 0.46144341 152.43814295 0.4768219 154.04728699 C0.63292407 171.22891716 0.63292407 171.22891716 -5.96484375 178.0234375 C-6.61582031 178.46945313 -7.26679688 178.91546875 -7.9375 179.375 C-8.58589844 179.83648437 -9.23429687 180.29796875 -9.90234375 180.7734375 C-14.27816957 183.33211405 -17.82025451 184.24914922 -22.8918457 184.22705078 C-24.05267166 184.22689972 -25.21349762 184.22674866 -26.40950012 184.22659302 C-27.65237289 184.21627045 -28.89524567 184.20594788 -30.17578125 184.1953125 C-32.09622505 184.19106766 -32.09622505 184.19106766 -34.0554657 184.18673706 C-37.44703075 184.1791278 -40.8384225 184.15950293 -44.22991943 184.1373291 C-47.69557349 184.11681206 -51.16125575 184.10772286 -54.62695312 184.09765625 C-61.41804366 184.07561492 -68.20900612 184.04215129 -75 184 C-75.42191917 167.55344318 -75.73857157 151.10866032 -75.93261909 134.65798759 C-76.0251482 127.01802767 -76.15108312 119.38144353 -76.35791016 111.74365234 C-76.53826462 105.08023006 -76.653657 98.41925242 -76.69359291 91.75345719 C-76.71692016 88.22765509 -76.77099572 84.70884026 -76.90314102 81.18529892 C-77.6729215 59.84733265 -77.6729215 59.84733265 -73.23076057 53.45340347 C-69.05309565 49.14079017 -64.32952455 46.01471106 -59.07809734 43.15244865 C-56.47189277 41.70712803 -54.16067482 39.97672287 -51.82421875 38.1328125 C-50.44685671 37.12808798 -49.06799016 36.12542216 -47.6875 35.125 C-40.83670948 30.11741032 -34.05464631 25.02791299 -27.3125 19.875 C-20.80281886 14.90178402 -14.29223878 9.93036123 -7.75 5 C-7.07622314 4.48937012 -6.40244629 3.97874023 -5.70825195 3.45263672 C-1.11625724 0 -1.11625724 0 0 0 Z " fill="#34A852" transform="translate(330,64)"/>
<path d="M0 0 C1.16789062 0.76376953 1.16789062 0.76376953 2.359375 1.54296875 C9.58252351 6.70067447 13.57121769 12.48710585 16 21 C16.69561466 26.49894469 16.66755229 32.08542197 16.75512695 37.62084961 C16.79327504 39.41056313 16.85468948 41.1999366 16.93969727 42.98803711 C17.63500179 57.76087706 17.63500179 57.76087706 13.80566406 63.00512695 C10.98991457 65.33187429 8.15861584 67.17263936 5 69 C3.48873942 70.10762905 1.99006813 71.23275229 0.5078125 72.37890625 C-0.95130799 73.44260113 -2.4122932 74.50374213 -3.875 75.5625 C-10.81316625 80.62819728 -17.67980823 85.77661419 -24.5 91 C-31.46115779 96.32407569 -38.45164469 101.60427475 -45.5 106.8125 C-46.28310547 107.39322266 -47.06621094 107.97394531 -47.87304688 108.57226562 C-48.97229492 109.38147461 -48.97229492 109.38147461 -50.09375 110.20703125 C-51.04797852 110.91049683 -51.04797852 110.91049683 -52.02148438 111.62817383 C-54.28588231 113.19821973 -56.63270321 114.59112278 -59 116 C-59.44190474 103.33522851 -59.77863293 90.67231308 -59.98443127 78.00137901 C-60.08325767 72.11597247 -60.21703458 66.2358689 -60.43334961 60.35351562 C-60.6411483 54.66659 -60.75365227 48.98473081 -60.80266762 43.29430008 C-60.83754763 41.13359389 -60.90567977 38.97313966 -61.00887108 36.81461716 C-61.75918759 20.45601885 -61.75918759 20.45601885 -57.20557022 14.752388 C-52.04965522 9.89879795 -46.14654742 6.43873312 -40 3 C-37.40321555 1.40923963 -34.81291936 -0.19139442 -32.22624493 -1.79853249 C-23.27363258 -6.63010909 -8.33759216 -5.56386563 0 0 Z " fill="#FABB04" transform="translate(314,4)"/>
<path d="M0 0 C0.69528809 -0.02231689 1.39057617 -0.04463379 2.10693359 -0.06762695 C13.25952252 -0.0197451 21.21002794 5.91092655 29.625 12.625 C31.47831622 14.07790839 33.33244113 15.52978602 35.1875 16.98046875 C35.99316406 17.62008545 36.79882812 18.25970215 37.62890625 18.91870117 C39.54768302 20.47621639 39.54768302 20.47621639 41.625 21.4375 C41.625 54.1075 41.625 86.7775 41.625 120.4375 C35.60554765 116.42453176 29.88946413 112.41399666 24.25 107.9375 C18.01397149 103.03650674 11.71508743 98.2437602 5.3125 93.5625 C-4.249737 86.56831561 -13.78400437 79.50927484 -23.05517578 72.1315918 C-25.29456402 70.38574841 -25.29456402 70.38574841 -27.73779297 69.31567383 C-30.42559268 67.92531964 -31.7061091 66.99050084 -33.375 64.4375 C-34.62618019 59.00681084 -34.35413226 53.35125411 -34.19824219 47.81665039 C-34.12547562 45.14247898 -34.11620194 42.47388393 -34.1171875 39.79882812 C-34.09750999 38.07807789 -34.0741893 36.3573647 -34.046875 34.63671875 C-34.04242371 33.84891525 -34.03797241 33.06111176 -34.03338623 32.24943542 C-33.7240009 23.02629726 -29.53252185 15.18567143 -23.375 8.4375 C-16.40325829 2.12192222 -9.26383936 0.17499937 0 0 Z " fill="#C4221F" transform="translate(33.375,-0.4375)"/>
</svg>
