<?xml version="1.0" encoding="UTF-8"?>
<svg version="1.1" xmlns="http://www.w3.org/2000/svg" width="512" height="512">
<path d="M0 0 C168.96 0 337.92 0 512 0 C512 168.96 512 337.92 512 512 C343.04 512 174.08 512 0 512 C0 343.04 0 174.08 0 0 Z " fill="#2D77B6" transform="translate(0,0)"/>
<path d="M0 0 C15.24913025 14.14957247 18.52557844 36.13907618 19.38452148 55.92456055 C19.42529281 56.82820437 19.46606413 57.7318482 19.50807095 58.66287518 C19.93535214 68.98040273 19.93449757 79.29268904 19.90625 89.6171875 C19.90437803 91.67225611 19.90295782 93.72732518 19.90196228 95.78239441 C19.89819834 101.11356911 19.88842273 106.44471526 19.8772583 111.77587891 C19.86508123 118.21405192 19.86061271 124.65223465 19.85480499 131.09041595 C19.84520578 140.80118239 19.82600697 150.51188657 19.80859375 160.22265625 C2.31859375 160.22265625 -15.17140625 160.22265625 -33.19140625 160.22265625 C-33.22878906 152.99875 -33.26617187 145.77484375 -33.3046875 138.33203125 C-33.33498601 133.73825801 -33.36614628 129.14452264 -33.40039062 124.55078125 C-33.45458757 117.26955133 -33.50570261 109.9883963 -33.5378418 102.70703125 C-33.56397194 96.83246642 -33.60444275 90.95815501 -33.65459251 85.08374786 C-33.67119571 82.84966448 -33.68275054 80.61553734 -33.68902016 78.38140106 C-33.11220245 57.89350215 -33.11220245 57.89350215 -41.51171875 39.84375 C-48.04045773 33.54275772 -55.11370421 32.92016262 -63.80078125 33.0078125 C-71.26725863 33.48091879 -78.95230678 35.59597034 -84.19140625 41.22265625 C-91.00671218 51.89876049 -92.3130771 63.40262988 -92.39672852 75.75976562 C-92.40662811 76.67776947 -92.41652771 77.59577332 -92.42672729 78.54159546 C-92.45809692 81.54984027 -92.48300181 84.55810082 -92.5078125 87.56640625 C-92.52840326 89.66247956 -92.54940027 91.75854891 -92.57078552 93.85461426 C-92.62578709 99.35197737 -92.67529239 104.84937658 -92.72363281 110.34680176 C-92.78287692 116.95323607 -92.84898348 123.55960489 -92.9139328 130.16598511 C-93.01166629 140.18483524 -93.10071103 150.2037288 -93.19140625 160.22265625 C-110.35140625 160.22265625 -127.51140625 160.22265625 -145.19140625 160.22265625 C-145.19140625 104.45265625 -145.19140625 48.68265625 -145.19140625 -8.77734375 C-128.69140625 -8.77734375 -112.19140625 -8.77734375 -95.19140625 -8.77734375 C-95.19140625 -1.18734375 -95.19140625 6.40265625 -95.19140625 14.22265625 C-94.53140625 14.22265625 -93.87140625 14.22265625 -93.19140625 14.22265625 C-92.9284375 13.4853125 -92.66546875 12.74796875 -92.39453125 11.98828125 C-87.74999833 1.31188739 -76.13939141 -5.97187254 -65.6796875 -10.1953125 C-43.77450691 -17.24262379 -18.22328072 -14.78002269 0 0 Z " fill="#000000" transform="translate(364.19140625,222.77734375)"/>
<path d="M0 0 C17.16 0 34.32 0 52 0 C52 55.77 52 111.54 52 169 C34.84 169 17.68 169 0 169 C0 113.23 0 57.46 0 0 Z " fill="#000000" transform="translate(133,214)"/>
<path d="M0 0 C7.71187715 4.37958455 12.33347902 10.42001749 15.52734375 18.6328125 C17.38210691 28.4124728 16.26030736 37.0952928 10.70703125 45.5546875 C5.9925098 51.38753729 -0.30384451 55.87749668 -7.78515625 57.2578125 C-18.48971737 58.13194667 -25.80428285 56.75838493 -34.09765625 49.8828125 C-39.85937276 44.51055595 -43.32136532 38.85797137 -44.12109375 30.92578125 C-44.2453655 19.85316848 -42.14499414 13.09589557 -34.578125 4.98046875 C-25.12533261 -4.1016259 -11.735749 -5.43990959 0 0 Z " fill="#000000" transform="translate(172.78515625,131.7421875)"/>
</svg>
