<?xml version="1.0" encoding="UTF-8"?>
<svg version="1.1" xmlns="http://www.w3.org/2000/svg" width="512" height="512">
<path d="M0 0 C168.96 0 337.92 0 512 0 C512 168.96 512 337.92 512 512 C343.04 512 174.08 512 0 512 C0 343.04 0 174.08 0 0 Z " fill="#00A39E" transform="translate(0,0)"/>
<path d="M0 0 C6.00711862 -0.10398567 12.01368542 -0.18471859 18.02154541 -0.22991943 C19.84983231 -0.24659342 21.67807128 -0.27029618 23.50616455 -0.30169678 C43.05612531 -0.62467167 61.6387345 2.32434141 77.18060303 15.24468994 C86.92095445 24.69667569 91.67586052 36.5328281 92.11810303 49.99468994 C91.58964887 66.883204 84.59658296 81.59244078 72.46575928 93.24468994 C66.1772714 98.62608637 59.31250472 101.8366044 51.74310303 105.05718994 C50.40649308 105.71726272 49.07248967 106.38268762 47.74310303 107.05718994 C74.55118928 155.62139597 74.55118928 155.62139597 116.98138428 188.02984619 C119.89279854 188.76539739 122.80343996 189.44538189 125.74310303 190.05718994 C125.74310303 192.69718994 125.74310303 195.33718994 125.74310303 198.05718994 C115.74456713 202.95443201 104.14215563 202.14620395 93.63763428 199.08062744 C74.3458592 192.25951399 63.97490923 178.28744393 52.74310303 162.05718994 C51.98561768 160.96857666 51.98561768 160.96857666 51.21282959 159.85797119 C44.54267865 150.21588259 38.33648035 140.28220039 32.18060303 130.30718994 C31.14347168 128.62774292 31.14347168 128.62774292 30.08538818 126.91436768 C29.43489502 125.85290527 28.78440186 124.79144287 28.11419678 123.69781494 C27.53597168 122.75454346 26.95774658 121.81127197 26.36199951 120.8394165 C21.74310303 112.9014065 21.74310303 112.9014065 21.74310303 110.05718994 C13.49310303 110.05718994 5.24310303 110.05718994 -3.25689697 110.05718994 C-3.17107761 117.98571332 -3.07716579 125.91401809 -2.96936989 133.84226894 C-2.91962104 137.52446736 -2.87329095 141.20664002 -2.83502197 144.88897705 C-2.79789634 148.44879619 -2.75146638 152.00838791 -2.69883347 155.56801033 C-2.67153534 157.57347746 -2.65364414 159.5790656 -2.63595581 161.5846405 C-2.66098176 173.38194836 -2.66098176 173.38194836 1.80560303 183.99468994 C5.70399133 186.7318562 9.09383368 187.34457872 13.74310303 188.05718994 C14.81560303 188.24152588 15.88810303 188.42586182 16.99310303 188.61578369 C19.90722215 189.11407057 22.82342061 189.59280729 25.74310303 190.05718994 C25.74310303 193.02718994 25.74310303 195.99718994 25.74310303 199.05718994 C-0.32689697 199.05718994 -26.39689697 199.05718994 -53.25689697 199.05718994 C-53.25689697 196.08718994 -53.25689697 193.11718994 -53.25689697 190.05718994 C-52.63943604 189.94761963 -52.0219751 189.83804932 -51.38580322 189.72515869 C-41.14948758 188.15798436 -41.14948758 188.15798436 -32.31939697 183.30718994 C-28.6878759 175.61691001 -28.95949096 168.09180943 -28.96636963 159.7276001 C-28.96037886 158.27320513 -28.95357205 156.81881333 -28.9460144 155.36442566 C-28.92840445 151.42839385 -28.92366119 147.4924491 -28.92238283 143.5563817 C-28.920958 141.09370432 -28.91668215 138.63104885 -28.9113884 136.16837692 C-28.8929057 127.56684726 -28.8847157 118.96537943 -28.8862915 110.36383057 C-28.88749289 102.36181045 -28.86638664 94.36006005 -28.83480418 86.35810816 C-28.80860671 79.47379407 -28.79792564 72.5895679 -28.79920232 65.70520437 C-28.79971087 61.59970499 -28.79408689 57.49444558 -28.77284622 53.38899612 C-28.75340469 49.5261541 -28.75337927 45.66377953 -28.76787949 41.80092049 C-28.76996129 40.38886261 -28.76530432 38.97677501 -28.75315857 37.56476784 C-28.69109701 29.84571492 -28.68159203 22.60763081 -33.25689697 16.05718994 C-35.91036343 14.36348795 -37.30156766 13.77071979 -40.25689697 13.05718994 C-41.36033447 12.78261963 -42.46377197 12.50804932 -43.60064697 12.22515869 C-46.81189458 11.46074214 -50.02783533 10.74184812 -53.25689697 10.05718994 C-53.25689697 7.08718994 -53.25689697 4.11718994 -53.25689697 1.05718994 C-37.73013338 0.69093755 -22.20287574 0.3741207 -6.6739502 0.11437988 C-4.449285 0.07714649 -2.22463381 0.03906377 0 0 Z " fill="#FBFDFD" transform="translate(181.25689697265625,187.94281005859375)"/>
<path d="M0 0 C46.83333333 0 46.83333333 0 58.1484375 11.109375 C66.71583253 20.32628373 69.51533973 29.42221385 69.24609375 41.88671875 C68.35367912 53.17647208 64.53029068 63.09721629 56.125 70.875 C45.13881125 79.70540831 32.4091987 81.50555872 18.625 81.25 C17.48933594 81.24484375 16.35367188 81.2396875 15.18359375 81.234375 C9.92095107 81.18501844 5.23033784 80.87172297 0 80 C0 53.6 0 27.2 0 0 Z " fill="#03A49F" transform="translate(177,202)"/>
<path d="M0 0 C4.32936981 3.08791712 7.24623212 6.82330447 10.125 11.25 C11.115 12.735 11.115 12.735 12.125 14.25 C12.125 15.24 12.125 16.23 12.125 17.25 C10.19032058 18.08986084 8.25214871 18.92168027 6.3125 19.75 C5.23355469 20.2140625 4.15460938 20.678125 3.04296875 21.15625 C0.125 22.25 0.125 22.25 -2.875 22.25 C-4.2190093 20.25715862 -5.55041292 18.25580329 -6.875 16.25 C-12.15407173 11.20045313 -16.51951077 9.21772961 -23.75 8.875 C-30.50627622 9.03755702 -34.85398977 11.31881245 -39.6875 15.9375 C-44.20714403 22.78153238 -45.33767014 29.63009506 -45.30859375 37.7109375 C-45.31645653 39.01775986 -45.31645653 39.01775986 -45.32447815 40.35098267 C-45.33085804 42.18124331 -45.32961412 44.01154517 -45.32104492 45.84179688 C-45.31254165 48.61143534 -45.34134141 51.37900228 -45.37304688 54.1484375 C-45.70066798 69.19161232 -45.70066798 69.19161232 -39.09545898 82.22607422 C-33.45599808 87.42619015 -28.67499009 88.77934961 -21.05078125 88.62109375 C-15.13867801 87.93025758 -10.07265945 85.85275797 -6.1796875 81.2421875 C-2.74289533 75.92006934 -1.71894258 71.39139158 -1.3125 65.0625 C-1.168125 62.814375 -1.02375 60.56625 -0.875 58.25 C-7.805 58.25 -14.735 58.25 -21.875 58.25 C-21.875 53.63 -21.875 49.01 -21.875 44.25 C-9.335 44.25 3.205 44.25 16.125 44.25 C16.89759845 80.17582796 16.89759845 80.17582796 4.60546875 93.953125 C-3.66123161 101.91812097 -15.15926923 104.57480196 -26.23828125 104.4609375 C-36.78256626 103.84934632 -46.42239061 99.1869635 -53.75 91.5625 C-57.49366938 86.98886618 -59.19265962 81.84875642 -60.875 76.25 C-61.205 75.26 -61.535 74.27 -61.875 73.25 C-61.97632981 71.72833545 -62.02332325 70.20271525 -62.03613281 68.67773438 C-62.04574036 67.75246948 -62.0553479 66.82720459 -62.06524658 65.87390137 C-62.06949646 64.87395142 -62.07374634 63.87400146 -62.078125 62.84375 C-62.08382507 61.8086731 -62.08952515 60.77359619 -62.09539795 59.70715332 C-62.10485172 57.51148501 -62.11138342 55.31580248 -62.11523438 53.12011719 C-62.1248819 49.79075588 -62.15587789 46.46202737 -62.1875 43.1328125 C-62.19403619 40.99479531 -62.19928424 38.85677373 -62.203125 36.71875 C-62.2154718 35.7349939 -62.2278186 34.75123779 -62.24053955 33.7376709 C-62.20218783 21.59124362 -59.26433054 12.80778747 -50.80078125 4.12109375 C-36.37883824 -9.54577371 -16.84507018 -10.29264722 0 0 Z " fill="#FAFDFD" transform="translate(368.875,129.75)"/>
</svg>
