<?xml version="1.0" encoding="UTF-8"?>
<svg version="1.1" xmlns="http://www.w3.org/2000/svg" width="1024" height="1024">
<path d="M0 0 C3.87038043 1.62601781 6.72024572 4.14407782 9.890625 6.859375 C11.32236559 8.05560692 12.75602054 9.24955065 14.19140625 10.44140625 C15.29476318 11.35913818 15.29476318 11.35913818 16.42041016 12.29541016 C19.90215319 15.14007155 23.48753676 17.84185972 27.078125 20.546875 C33.70817284 25.56282916 40.14919962 30.77157818 46.54223633 36.08520508 C51.73708776 40.39367407 57.03195715 44.53478464 62.40234375 48.62109375 C66.0060932 51.37351143 69.54303279 54.20712171 73.078125 57.046875 C77.93401622 60.94665176 82.80312776 64.82762131 87.703125 68.671875 C88.27812744 69.12312744 88.85312988 69.57437988 89.44555664 70.03930664 C92.3167617 72.29101866 95.19069711 74.53920035 98.06640625 76.78515625 C104.33136031 81.68476278 110.54309523 86.64080427 116.703125 91.671875 C121.48455121 95.5761639 126.29485648 99.42812617 131.203125 103.171875 C136.52488619 107.23218168 141.76340854 111.38490271 146.98242188 115.57617188 C151.20438821 118.96502666 155.44372342 122.33019552 159.703125 125.671875 C160.27812744 126.12312744 160.85312988 126.57437988 161.44555664 127.03930664 C164.3167617 129.29101866 167.19069711 131.53920035 170.06640625 133.78515625 C176.33136031 138.68476278 182.54309523 143.64080427 188.703125 148.671875 C193.48455121 152.5761639 198.29485648 156.42812617 203.203125 160.171875 C208.52488619 164.23218168 213.76340854 168.38490271 218.98242188 172.57617188 C223.20438821 175.96502666 227.44372342 179.33019552 231.703125 182.671875 C232.27812744 183.12312744 232.85312988 183.57437988 233.44555664 184.03930664 C236.3167617 186.29101866 239.19069711 188.53920035 242.06640625 190.78515625 C248.33136031 195.68476278 254.54309523 200.64080427 260.703125 205.671875 C265.48455121 209.5761639 270.29485648 213.42812617 275.203125 217.171875 C280.52488619 221.23218168 285.76340854 225.38490271 290.98242188 229.57617188 C295.20438821 232.96502666 299.44372342 236.33019552 303.703125 239.671875 C304.27812744 240.12312744 304.85312988 240.57437988 305.44555664 241.03930664 C308.3167617 243.29101866 311.19069711 245.53920035 314.06640625 247.78515625 C320.33136031 252.68476278 326.54309523 257.64080427 332.703125 262.671875 C337.48455121 266.5761639 342.29485648 270.42812617 347.203125 274.171875 C352.52488619 278.23218168 357.76340854 282.38490271 362.98242188 286.57617188 C367.20438821 289.96502666 371.44372342 293.33019552 375.703125 296.671875 C376.27812744 297.12312744 376.85312988 297.57437988 377.44555664 298.03930664 C380.3167617 300.29101866 383.19069711 302.53920035 386.06640625 304.78515625 C392.33136031 309.68476278 398.54309523 314.64080427 404.703125 319.671875 C409.48455121 323.5761639 414.29485648 327.42812617 419.203125 331.171875 C424.52488619 335.23218168 429.76340854 339.38490271 434.98242188 343.57617188 C439.20438821 346.96502666 443.44372342 350.33019552 447.703125 353.671875 C448.27812744 354.12312744 448.85312988 354.57437988 449.44555664 355.03930664 C452.3167617 357.29101866 455.19069711 359.53920035 458.06640625 361.78515625 C464.33136214 366.68476421 470.54302839 371.6408844 476.703125 376.671875 C481.5073518 380.59383346 486.33955913 384.4664039 491.265625 388.234375 C492.29300781 389.02199219 493.32039062 389.80960937 494.37890625 390.62109375 C496.1019596 391.93853491 497.8284008 393.25100697 499.56005859 394.55712891 C501.53084871 396.04545342 503.49236853 397.54536796 505.453125 399.046875 C506.07074707 399.50787598 506.68836914 399.96887695 507.32470703 400.44384766 C508.81986435 401.59584012 510.23840387 402.84590439 511.640625 404.109375 C511.640625 405.099375 511.640625 406.089375 511.640625 407.109375 C509.83984375 408.8359375 509.83984375 408.8359375 507.328125 410.734375 C506.40644531 411.44464844 505.48476563 412.15492188 504.53515625 412.88671875 C503.57996094 413.62019531 502.62476563 414.35367187 501.640625 415.109375 C499.92645605 416.49803561 498.2181857 417.89400632 496.515625 419.296875 C492.00423558 422.99608742 487.48187549 426.68143764 482.953125 430.359375 C482.27789795 430.90779053 481.6026709 431.45620605 480.90698242 432.02124023 C478.11754126 434.28653084 475.32780611 436.55145926 472.53808594 438.81640625 C465.1974182 444.7766311 457.86124466 450.74187938 450.546875 456.734375 C446.22016705 460.27017935 441.88088721 463.79046565 437.54296875 467.3125 C433.73617153 470.40416833 429.93415388 473.50142363 426.140625 476.609375 C418.29372835 483.03702727 410.41285138 489.4229599 402.53808594 495.81640625 C395.1974182 501.7766311 387.86124466 507.74187938 380.546875 513.734375 C376.22016705 517.27017935 371.88088721 520.79046565 367.54296875 524.3125 C363.73617153 527.40416833 359.93415388 530.50142363 356.140625 533.609375 C348.29372835 540.03702727 340.41285138 546.4229599 332.53808594 552.81640625 C325.1974182 558.7766311 317.86124466 564.74187938 310.546875 570.734375 C306.91757204 573.70025699 303.27930704 576.65501279 299.640625 579.609375 C294.92738574 583.43673373 290.2164326 587.26675298 285.515625 591.109375 C284.65839844 591.80933594 283.80117188 592.50929688 282.91796875 593.23046875 C280.94967308 594.85439708 279.01179039 596.50716067 277.078125 598.171875 C274.640625 600.109375 274.640625 600.109375 272.640625 600.109375 C273.16849609 601.51123047 273.16849609 601.51123047 273.70703125 602.94140625 C274.48061966 604.99642487 275.2516827 607.05229833 276.01782227 609.11010742 C277.4309516 612.90431297 278.86285692 616.68787651 280.3515625 620.453125 C288.46441594 641.25584487 293.45432819 663.04208865 296.640625 685.109375 C296.75776855 685.86476563 296.87491211 686.62015625 296.99560547 687.3984375 C308.42574378 763.21439208 284.98171263 843.20453327 240.12548828 904.33911133 C235.63669726 910.38106087 231.016521 916.19823676 225.87109375 921.703125 C223.98840863 923.73418285 222.17285494 925.79900716 220.36328125 927.89453125 C211.04161486 938.57879605 200.81932831 948.39587811 189.640625 957.109375 C188.50144312 958.04649293 187.36488403 958.98680504 186.23046875 959.9296875 C138.77708218 999.13940256 74.66573452 1024.01560697 12.9453125 1024.3125 C11.47144577 1024.32302147 11.47144577 1024.32302147 9.96780396 1024.33375549 C6.8170304 1024.35115011 3.6664448 1024.3576071 0.515625 1024.359375 C-0.56106445 1024.36004974 -1.63775391 1024.36072449 -2.74707031 1024.36141968 C-18.49354033 1024.34572601 -33.8337004 1023.97518023 -49.359375 1021.109375 C-50.3302002 1020.93776855 -51.30102539 1020.76616211 -52.30126953 1020.58935547 C-103.27703669 1011.39942741 -150.29840375 989.88024149 -190.359375 957.109375 C-190.9073877 956.66577637 -191.45540039 956.22217773 -192.02001953 955.76513672 C-206.78820854 943.74937928 -220.78300628 930.24598091 -232.359375 915.109375 C-233.2068366 914.06023303 -234.05728233 913.01349692 -234.91015625 911.96875 C-250.056812 893.29401194 -262.00182993 872.75119285 -272.359375 851.109375 C-272.92140625 849.95179688 -273.4834375 848.79421875 -274.0625 847.6015625 C-287.17302621 819.23626514 -295.13490056 788.12053605 -298.359375 757.109375 C-298.50076904 755.80867065 -298.50076904 755.80867065 -298.64501953 754.48168945 C-303.55508195 703.86588504 -295.39184111 652.78834599 -275.18798828 606.21801758 C-274.39373502 604.19681385 -273.8332454 602.2262158 -273.359375 600.109375 C-273.9462207 599.83714111 -274.53306641 599.56490723 -275.13769531 599.28442383 C-277.31773878 598.13139644 -279.0190145 596.88808295 -280.90625 595.30859375 C-281.57833496 594.75002686 -282.25041992 594.19145996 -282.94287109 593.6159668 C-284.01529053 592.71551636 -284.01529053 592.71551636 -285.109375 591.796875 C-286.63760771 590.5255449 -288.16626374 589.2547235 -289.6953125 587.984375 C-290.47100586 587.33855469 -291.24669922 586.69273437 -292.04589844 586.02734375 C-295.58762183 583.09110705 -299.15957094 580.19267323 -302.734375 577.296875 C-304.06519006 576.21755381 -305.3959217 575.13812976 -306.7265625 574.05859375 C-307.34885742 573.55376465 -307.97115234 573.04893555 -308.61230469 572.52880859 C-311.03315574 570.56195168 -313.44673895 568.58629618 -315.859375 566.609375 C-320.34961396 562.93062501 -324.85293292 559.26823673 -329.359375 555.609375 C-333.86581708 551.95051327 -338.36913604 548.28812499 -342.859375 544.609375 C-350.00791776 538.75376747 -357.18544326 532.93382121 -364.359375 527.109375 C-372.40108392 520.58038884 -380.44044285 514.04898206 -388.453125 507.484375 C-392.08242784 504.51849311 -395.72066832 501.56370668 -399.359375 498.609375 C-403.86581708 494.95051327 -408.36913604 491.28812499 -412.859375 487.609375 C-420.00791776 481.75376747 -427.18544326 475.93382121 -434.359375 470.109375 C-442.40108392 463.58038884 -450.44044285 457.04898206 -458.453125 450.484375 C-462.08242784 447.51849311 -465.72066832 444.56370668 -469.359375 441.609375 C-473.86581708 437.95051327 -478.36913604 434.28812499 -482.859375 430.609375 C-484.69246119 429.10907299 -486.52582296 427.60910766 -488.359375 426.109375 C-488.98376465 425.59842285 -489.6081543 425.0874707 -490.25146484 424.56103516 C-492.34852815 422.8462516 -494.4475412 421.13387784 -496.546875 419.421875 C-497.20042969 418.88691406 -497.85398437 418.35195313 -498.52734375 417.80078125 C-503.05105812 414.11614293 -507.66774114 410.57744193 -512.359375 407.109375 C-511.52425488 402.47491718 -508.79691081 400.7340522 -505.171875 398.046875 C-503.88395327 397.06401343 -502.59619728 396.08093464 -501.30859375 395.09765625 C-500.64907715 394.59959473 -499.98956055 394.1015332 -499.31005859 393.58837891 C-496.34144112 391.33757983 -493.41200547 389.03808422 -490.484375 386.734375 C-489.91380371 386.28707031 -489.34323242 385.83976562 -488.75537109 385.37890625 C-484.2269359 381.8195034 -479.75784969 378.19027934 -475.296875 374.546875 C-470.51544879 370.6425861 -465.70514352 366.79062383 -460.796875 363.046875 C-456.12254904 359.48053742 -451.50603779 355.85331035 -446.921875 352.171875 C-442.06592347 348.27217239 -437.19687318 344.39112943 -432.296875 340.546875 C-431.72187256 340.09562256 -431.14687012 339.64437012 -430.55444336 339.17944336 C-427.6832383 336.92773134 -424.80930289 334.67954965 -421.93359375 332.43359375 C-415.66863969 327.53398722 -409.45690477 322.57794573 -403.296875 317.546875 C-398.51544879 313.6425861 -393.70514352 309.79062383 -388.796875 306.046875 C-384.12254904 302.48053742 -379.50603779 298.85331035 -374.921875 295.171875 C-370.06592347 291.27217239 -365.19687318 287.39112943 -360.296875 283.546875 C-359.72187256 283.09562256 -359.14687012 282.64437012 -358.55444336 282.17944336 C-355.6832383 279.92773134 -352.80930289 277.67954965 -349.93359375 275.43359375 C-343.66863969 270.53398722 -337.45690477 265.57794573 -331.296875 260.546875 C-326.51544879 256.6425861 -321.70514352 252.79062383 -316.796875 249.046875 C-312.12254904 245.48053742 -307.50603779 241.85331035 -302.921875 238.171875 C-298.06592347 234.27217239 -293.19687318 230.39112943 -288.296875 226.546875 C-287.72187256 226.09562256 -287.14687012 225.64437012 -286.55444336 225.17944336 C-283.6832383 222.92773134 -280.80930289 220.67954965 -277.93359375 218.43359375 C-271.66863969 213.53398722 -265.45690477 208.57794573 -259.296875 203.546875 C-254.51544879 199.6425861 -249.70514352 195.79062383 -244.796875 192.046875 C-240.12254904 188.48053742 -235.50603779 184.85331035 -230.921875 181.171875 C-226.06592347 177.27217239 -221.19687318 173.39112943 -216.296875 169.546875 C-215.72187256 169.09562256 -215.14687012 168.64437012 -214.55444336 168.17944336 C-211.6832383 165.92773134 -208.80930289 163.67954965 -205.93359375 161.43359375 C-199.66863969 156.53398722 -193.45690477 151.57794573 -187.296875 146.546875 C-182.51544879 142.6425861 -177.70514352 138.79062383 -172.796875 135.046875 C-168.12254904 131.48053742 -163.50603779 127.85331035 -158.921875 124.171875 C-154.06592347 120.27217239 -149.19687318 116.39112943 -144.296875 112.546875 C-143.72187256 112.09562256 -143.14687012 111.64437012 -142.55444336 111.17944336 C-139.6832383 108.92773134 -136.80930289 106.67954965 -133.93359375 104.43359375 C-127.66863969 99.53398722 -121.45690477 94.57794573 -115.296875 89.546875 C-110.51544879 85.6425861 -105.70514352 81.79062383 -100.796875 78.046875 C-96.12254904 74.48053742 -91.50603779 70.85331035 -86.921875 67.171875 C-82.06592347 63.27217239 -77.19687318 59.39112943 -72.296875 55.546875 C-71.43437134 54.86999634 -71.43437134 54.86999634 -70.55444336 54.17944336 C-67.6832383 51.92773134 -64.80930289 49.67954965 -61.93359375 47.43359375 C-55.66863969 42.53398722 -49.45690477 37.57794573 -43.296875 32.546875 C-38.51545097 28.64258788 -33.70519244 24.79055842 -28.796875 21.046875 C-22.68015305 16.38106088 -16.66891396 11.59174531 -10.671875 6.7734375 C-10.10339844 6.32258789 -9.53492188 5.87173828 -8.94921875 5.40722656 C-7.4989755 4.22333634 -6.11236512 2.96257127 -4.734375 1.6953125 C-2.359375 0.109375 -2.359375 0.109375 0 0 Z " fill="#356AC3" transform="translate(512.359375,-0.109375)"/>
<path d="M0 0 C1.72352692 0.00081573 1.72352692 0.00081573 3.48187256 0.00164795 C21.58520229 0.04099959 39.01071528 0.85136447 56.8125 4.375 C57.90449707 4.58398926 58.99649414 4.79297852 60.12158203 5.00830078 C137.88430772 20.27719897 207.14696385 67.34876591 251.24316406 132.96777344 C272.8125 166.05328251 272.8125 166.05328251 272.8125 174.375 C273.4725 174.375 274.1325 174.375 274.8125 174.375 C286.16597879 201.71628687 294.44109754 228.9954352 298.8125 258.375 C299.00948486 259.62313477 299.00948486 259.62313477 299.21044922 260.89648438 C310.77936861 336.50821561 286.99966621 416.67993788 242.29736328 477.60473633 C237.80857226 483.64668587 233.188396 489.46386176 228.04296875 494.96875 C226.16028363 496.99980785 224.34472994 499.06463216 222.53515625 501.16015625 C213.21348986 511.84442105 202.99120331 521.66150311 191.8125 530.375 C190.67331812 531.31211793 189.53675903 532.25243004 188.40234375 533.1953125 C140.94895718 572.40502756 76.83760952 597.28123197 15.1171875 597.578125 C14.13460968 597.58513931 13.15203186 597.59215363 12.13967896 597.59938049 C8.9889054 597.61677511 5.8383198 597.6232321 2.6875 597.625 C1.61081055 597.62567474 0.53412109 597.62634949 -0.57519531 597.62704468 C-16.32166533 597.61135101 -31.6618254 597.24080523 -47.1875 594.375 C-48.1583252 594.20339355 -49.12915039 594.03178711 -50.12939453 593.85498047 C-101.10516169 584.66505241 -148.12652875 563.14586649 -188.1875 530.375 C-189.00951904 529.70960205 -189.00951904 529.70960205 -189.84814453 529.03076172 C-204.61633354 517.01500428 -218.61113128 503.51160591 -230.1875 488.375 C-231.0349616 487.32585803 -231.88540733 486.27912192 -232.73828125 485.234375 C-247.884937 466.55963694 -259.82995493 446.01681785 -270.1875 424.375 C-270.74953125 423.21742188 -271.3115625 422.05984375 -271.890625 420.8671875 C-285.00115121 392.50189014 -292.96302556 361.38616105 -296.1875 330.375 C-296.32889404 329.07429565 -296.32889404 329.07429565 -296.47314453 327.74731445 C-301.61765611 274.71467052 -291.62088364 223.24819142 -271.1875 174.375 C-270.5275 174.375 -269.8675 174.375 -269.1875 174.375 C-269.06850342 173.64861328 -268.94950684 172.92222656 -268.8269043 172.17382812 C-267.72895958 167.36785704 -265.27576436 163.22036066 -263 158.875 C-262.47043701 157.86268311 -261.94087402 156.85036621 -261.39526367 155.80737305 C-255.71427219 145.1692677 -249.15008684 135.21030829 -242.1875 125.375 C-241.75308594 124.76060059 -241.31867188 124.14620117 -240.87109375 123.51318359 C-231.67570847 110.63433333 -221.06458675 98.84159942 -210.1875 87.375 C-209.40503906 86.55 -208.62257813 85.725 -207.81640625 84.875 C-203.16981183 80.10416509 -198.25110431 75.83706887 -193.05078125 71.6796875 C-190.17103671 69.36174851 -187.37021079 66.96691444 -184.5625 64.5625 C-147.14628304 33.50991073 -101.55770036 14.22618072 -54.1875 4.5625 C-53.23431885 4.3675293 -52.2811377 4.17255859 -51.29907227 3.97167969 C-34.18453916 0.66003724 -17.39904364 -0.0309675 0 0 Z " fill="#9FC2FE" transform="translate(510.1875,426.625)"/>
<path d="M0 0 C0 140.58 0 281.16 0 426 C3.3 426 6.6 426 10 426 C10 426.33 10 426.66 10 427 C9.03102783 427.0093457 8.06205566 427.01869141 7.0637207 427.02832031 C-62.60053168 427.81239014 -131.70364148 446.48219497 -186 492 C-187.1053582 492.91289429 -188.21082817 493.82565326 -189.31640625 494.73828125 C-202.37211965 505.59117881 -215.05090006 516.99279856 -226 530 C-226.43376953 530.50402344 -226.86753906 531.00804687 -227.31445312 531.52734375 C-245.16348164 552.33119125 -260.06983475 575.85173361 -271 601 C-275.43899351 599.55834523 -278.50325138 597.11234932 -281.9375 594.0625 C-286.53068329 590.07576456 -291.19151328 586.22427931 -296 582.5 C-301.14944732 578.50009086 -306.15355557 574.36605459 -311.10546875 570.125 C-314.9924941 566.81208736 -318.9673774 563.6335169 -323 560.5 C-328.14877299 556.49918743 -333.1535141 552.36609011 -338.10546875 548.125 C-341.99249614 544.81208562 -345.96740506 541.63355562 -350 538.5 C-355.23824648 534.42895569 -360.33780962 530.2265902 -365.38232422 525.91845703 C-369.37920978 522.50916874 -373.44717693 519.20596542 -377.5625 515.94140625 C-381.03091355 513.17890379 -384.45430343 510.36254718 -387.8828125 507.55078125 C-391.57910602 504.52224436 -395.28999827 501.51171492 -399 498.5 C-403.50647495 494.84117903 -408.00976129 491.17874979 -412.5 487.5 C-419.64854276 481.64439247 -426.82606826 475.82444621 -434 470 C-442.04170892 463.47101384 -450.08106785 456.93960706 -458.09375 450.375 C-461.72305284 447.40911811 -465.36129332 444.45433168 -469 441.5 C-473.50644208 437.84113827 -478.00976104 434.17874999 -482.5 430.5 C-484.33308619 428.99969799 -486.16644796 427.49973266 -488 426 C-488.62438965 425.48904785 -489.2487793 424.9780957 -489.89208984 424.45166016 C-491.98915315 422.7368766 -494.0881662 421.02450284 -496.1875 419.3125 C-496.84105469 418.77753906 -497.49460937 418.24257813 -498.16796875 417.69140625 C-502.69168312 414.00676793 -507.30836614 410.46806693 -512 407 C-511.16487988 402.36554218 -508.43753581 400.6246772 -504.8125 397.9375 C-503.52457827 396.95463843 -502.23682228 395.97155964 -500.94921875 394.98828125 C-500.28970215 394.49021973 -499.63018555 393.9921582 -498.95068359 393.47900391 C-495.98206612 391.22820483 -493.05263047 388.92870922 -490.125 386.625 C-489.55442871 386.17769531 -488.98385742 385.73039062 -488.39599609 385.26953125 C-483.8675609 381.7101284 -479.39847469 378.08090434 -474.9375 374.4375 C-470.15607379 370.5332111 -465.34576852 366.68124883 -460.4375 362.9375 C-455.76317404 359.37116242 -451.14666279 355.74393535 -446.5625 352.0625 C-441.70654847 348.16279739 -436.83749818 344.28175443 -431.9375 340.4375 C-431.36249756 339.98624756 -430.78749512 339.53499512 -430.19506836 339.07006836 C-427.3238633 336.81835634 -424.44992789 334.57017465 -421.57421875 332.32421875 C-415.30926469 327.42461222 -409.09752977 322.46857073 -402.9375 317.4375 C-398.15607379 313.5332111 -393.34576852 309.68124883 -388.4375 305.9375 C-383.76317404 302.37116242 -379.14666279 298.74393535 -374.5625 295.0625 C-369.70654847 291.16279739 -364.83749818 287.28175443 -359.9375 283.4375 C-359.36249756 282.98624756 -358.78749512 282.53499512 -358.19506836 282.07006836 C-355.3238633 279.81835634 -352.44992789 277.57017465 -349.57421875 275.32421875 C-343.30926469 270.42461222 -337.09752977 265.46857073 -330.9375 260.4375 C-326.15607379 256.5332111 -321.34576852 252.68124883 -316.4375 248.9375 C-311.76317404 245.37116242 -307.14666279 241.74393535 -302.5625 238.0625 C-297.70654847 234.16279739 -292.83749818 230.28175443 -287.9375 226.4375 C-287.36249756 225.98624756 -286.78749512 225.53499512 -286.19506836 225.07006836 C-283.3238633 222.81835634 -280.44992789 220.57017465 -277.57421875 218.32421875 C-271.30926469 213.42461222 -265.09752977 208.46857073 -258.9375 203.4375 C-254.15607379 199.5332111 -249.34576852 195.68124883 -244.4375 191.9375 C-239.76317404 188.37116242 -235.14666279 184.74393535 -230.5625 181.0625 C-225.70654847 177.16279739 -220.83749818 173.28175443 -215.9375 169.4375 C-215.36249756 168.98624756 -214.78749512 168.53499512 -214.19506836 168.07006836 C-211.3238633 165.81835634 -208.44992789 163.57017465 -205.57421875 161.32421875 C-199.30926469 156.42461222 -193.09752977 151.46857073 -186.9375 146.4375 C-182.15607379 142.5332111 -177.34576852 138.68124883 -172.4375 134.9375 C-167.76317404 131.37116242 -163.14666279 127.74393535 -158.5625 124.0625 C-153.70654847 120.16279739 -148.83749818 116.28175443 -143.9375 112.4375 C-143.36249756 111.98624756 -142.78749512 111.53499512 -142.19506836 111.07006836 C-139.3238633 108.81835634 -136.44992789 106.57017465 -133.57421875 104.32421875 C-127.30926469 99.42461222 -121.09752977 94.46857073 -114.9375 89.4375 C-110.15607379 85.5332111 -105.34576852 81.68124883 -100.4375 77.9375 C-95.76317404 74.37116242 -91.14666279 70.74393535 -86.5625 67.0625 C-81.70654847 63.16279739 -76.83749818 59.28175443 -71.9375 55.4375 C-71.07499634 54.76062134 -71.07499634 54.76062134 -70.19506836 54.07006836 C-67.3238633 51.81835634 -64.44992789 49.57017465 -61.57421875 47.32421875 C-55.30926469 42.42461222 -49.09752977 37.46857073 -42.9375 32.4375 C-38.15607597 28.53321288 -33.34581744 24.68118342 -28.4375 20.9375 C-22.32077805 16.27168588 -16.30953896 11.48237031 -10.3125 6.6640625 C-9.74789063 6.21192383 -9.18328125 5.75978516 -8.6015625 5.29394531 C-7.11720575 4.09469367 -5.65147673 2.87248471 -4.1875 1.6484375 C-2 0 -2 0 0 0 Z " fill="#4185F4" transform="translate(512,0)"/>
<path d="M0 0 C1.72352692 0.00081573 1.72352692 0.00081573 3.48187256 0.00164795 C21.58520229 0.04099959 39.01071528 0.85136447 56.8125 4.375 C57.90449707 4.58398926 58.99649414 4.79297852 60.12158203 5.00830078 C137.87923842 20.2762036 207.14776289 67.34516903 251.23876953 132.96337891 C254.16678536 137.45033831 256.94461449 142.02307826 259.6875 146.625 C260.47241821 147.93609741 260.47241821 147.93609741 261.27319336 149.27368164 C265.31407696 156.17854873 268.41864245 163.02164198 271.8125 170.375 C93.6125 170.375 -84.5875 170.375 -268.1875 170.375 C-258.8993934 150.63777348 -258.8993934 150.63777348 -254.9375 144.375 C-254.48133301 143.6420874 -254.02516602 142.9091748 -253.55517578 142.15405273 C-244.01545625 127.0087357 -233.36016521 112.93114668 -221.296875 99.703125 C-219.43074433 97.64346967 -217.61680212 95.55111105 -215.8125 93.4375 C-208.82192004 85.44826576 -201.28618082 78.21645766 -192.98046875 71.609375 C-190.11907661 69.32026129 -187.34509843 66.94649975 -184.5625 64.5625 C-147.14628304 33.50991073 -101.55770036 14.22618072 -54.1875 4.5625 C-53.23431885 4.3675293 -52.2811377 4.17255859 -51.29907227 3.97167969 C-34.18453916 0.66003724 -17.39904364 -0.0309675 0 0 Z " fill="#75A6F9" transform="translate(510.1875,426.625)"/>
</svg>
